<svg version="1.1" viewBox="0.0 0.0 960.0 720.0" fill="none" stroke="none" stroke-linecap="square" stroke-miterlimit="10" xmlns:xlink="http://www.w3.org/1999/xlink" xmlns="http://www.w3.org/2000/svg"><clipPath id="p.0"><path d="m0 0l960.0 0l0 720.0l-960.0 0l0 -720.0z" clip-rule="nonzero"/></clipPath><g clip-path="url(#p.0)"><path fill="#000000" fill-opacity="0.0" d="m0 0l960.0 0l0 720.0l-960.0 0z" fill-rule="evenodd"/><path fill="#ff9900" d="m0 0l960.0 0l0 720.0l-960.0 0z" fill-rule="evenodd"/><path stroke="#000000" stroke-width="1.0" stroke-linejoin="round" stroke-linecap="butt" d="m0 0l960.0 0l0 720.0l-960.0 0z" fill-rule="evenodd"/><path fill="#000000" fill-opacity="0.0" d="m190.72704 352.84778l594.83466 0l0 292.063l-594.83466 0z" fill-rule="evenodd"/><path fill="#000000" d="m265.4455 541.0478l0 -133.6094l26.609375 0l31.625 94.59375q4.375 13.2187805 6.375 19.78128q2.28125 -7.28125 7.109375 -21.421906l32.0 -92.953125l23.78125 0l0 133.6094l-17.046875 0l0 -111.828156l-38.828125 111.828156l-15.9375 0l-38.65625 -113.75003l0 113.75003l-17.03125 0zm217.09549 -11.9375q-9.125 7.75 -17.5625 10.9375q-8.421875 3.1875 -18.078125 3.1875q-15.953125 0 -24.515625 -7.78125q-8.5625 -7.796875 -8.5625 -19.921875q0 -7.1094055 3.234375 -12.9844055q3.234375 -5.890625 8.46875 -9.4375q5.25 -3.5625 11.8125 -5.375q4.828125 -1.28125 14.578125 -2.46875q19.859375 -2.359375 29.25 -5.640625q0.09375 -3.375 0.09375 -4.296875q0 -10.015625 -4.640625 -14.125q-6.296875 -5.5625 -18.6875 -5.5625q-11.578125 0 -17.09375 4.0625q-5.515625 4.0625 -8.15625 14.359375l-16.046875 -2.1875q2.1875 -10.296875 7.203125 -16.625q5.015625 -6.34375 14.484375 -9.765625q9.484375 -3.421875 21.96875 -3.421875q12.40625 0 20.140625 2.921875q7.75 2.921875 11.390625 7.34375q3.65625 4.40625 5.109375 11.15625q0.828125 4.1875 0.828125 15.125l0 21.875q0 22.87503 1.046875 28.93753q1.046875 6.0625 4.140625 11.625l-17.125 0q-2.5625 -5.109375 -3.28125 -11.9375zm-1.375 -36.640656q-8.921875 3.640625 -26.796875 6.203125q-10.109375 1.453125 -14.3125 3.28125q-4.1875 1.8125 -6.46875 5.328125q-2.265625 3.5 -2.265625 7.7969055q0 6.5625 4.953125 10.9375q4.96875 4.375 14.546875 4.375q9.46875 0 16.84375 -4.140625q7.390625 -4.15625 10.859375 -11.359375q2.640625 -5.5625305 2.640625 -16.40628l0 -6.015625zm39.01242 56.59378l15.953125 2.375q1.0 7.375 5.5625 10.75q6.09375 4.5625 16.671875 4.5625q11.390625 0 17.578125 -4.5625q6.203125 -4.546875 8.390625 -12.75q1.28125 -5.015625 1.1875 -21.0625q-10.75 12.671875 -26.796875 12.671875q-19.953125 0 -30.890625 -14.390625q-10.9375 -14.40625 -10.9375 -34.546906q0 -13.859375 5.015625 -25.5625q5.015625 -11.71875 14.53125 -18.09375q9.53125 -6.390625 22.375 -6.390625q17.140625 0 28.25 13.859375l0 -11.671875l15.140625 0l0 83.671906q0 22.609375 -4.609375 32.03125q-4.59375 9.4375 -14.578125 14.90625q-9.984375 5.46875 -24.5625 5.46875q-17.3125 0 -27.984375 -7.796875q-10.65625 -7.78125 -10.296875 -23.46875zm13.578125 -58.140656q0 19.046875 7.5625 27.796906q7.5625 8.75 18.953125 8.75q11.3125 0 18.96875 -8.703125q7.65625 -8.7031555 7.65625 -27.296906q0 -17.78125 -7.890625 -26.796875q-7.875 -9.03125 -19.0 -9.03125q-10.9375 0 -18.59375 8.890625q-7.65625 8.890625 -7.65625 26.390625zm159.49683 18.953125l16.953125 2.09375q-4.015625 14.8594055 -14.859375 23.06253q-10.84375 8.203125 -27.703125 8.203125q-21.234375 0 -33.6875 -13.078125q-12.4375 -13.078125 -12.4375 -36.68753q0 -24.421875 12.578125 -37.90625q12.578125 -13.5 32.640625 -13.5q19.40625 0 31.703125 13.21875q12.3125 13.21875 12.3125 37.1875q0 1.453125 -0.09375 4.375l-72.1875 0q0.921875 15.9531555 9.03125 24.43753q8.109375 8.46875 20.234375 8.46875q9.015625 0 15.390625 -4.734375q6.390625 -4.75 10.125 -15.1406555zm-53.859375 -26.515625l54.046875 0q-1.09375 -12.21875 -6.203125 -18.328125q-7.84375 -9.46875 -20.328125 -9.46875q-11.296875 0 -19.0 7.5625q-7.703125 7.5625 -8.515625 20.234375z" fill-rule="nonzero"/><path fill="#000000" fill-opacity="0.0" d="m228.27034 129.92914l519.74805 0l0 162.11023l-519.74805 0z" fill-rule="evenodd"/><path fill="#3c78d8" d="m299.00372 244.69164l1.53125 9.3125q-4.453125 0.953125 -7.96875 0.953125q-5.75 0 -8.921875 -1.8125q-3.15625 -1.828125 -4.453125 -4.78125q-1.28125 -2.96875 -1.28125 -12.453125l0 -35.8125l-7.734375 0l0 -8.203125l7.734375 0l0 -15.40625l10.484375 -6.328125l0 21.734375l10.609375 0l0 8.203125l-10.609375 0l0 36.390625q0 4.515625 0.5625 5.8125q0.5625 1.28125 1.8125 2.046875q1.265625 0.75 3.609375 0.75q1.75 0 4.625 -0.40625zm20.042969 9.4375l-9.78125 0l0 -85.90625l10.546875 0l0 30.65625q6.671875 -8.390625 17.046875 -8.390625q5.734375 0 10.859375 2.328125q5.140625 2.3125 8.4375 6.5q3.3125 4.1875 5.1875 10.109375q1.875 5.90625 1.875 12.65625q0 15.984375 -7.90625 24.71875q-7.90625 8.734375 -18.984375 8.734375q-11.015625 0 -17.28125 -9.203125l0 7.796875zm-0.125 -31.578125q0 11.1875 3.046875 16.171875q4.984375 8.140625 13.484375 8.140625q6.90625 0 11.9375 -6.0q5.046875 -6.015625 5.046875 -17.90625q0 -12.1875 -4.828125 -17.984375q-4.828125 -5.8125 -11.6875 -5.8125q-6.921875 0 -11.96875 6.015625q-5.03125 6.0 -5.03125 17.375zm53.20703 0.46875q0 -17.296875 9.609375 -25.609375q8.03125 -6.921875 19.578125 -6.921875q12.828125 0 20.96875 8.421875q8.140625 8.40625 8.140625 23.21875q0 12.015625 -3.609375 18.90625q-3.59375 6.875 -10.484375 10.6875q-6.875 3.8125 -15.015625 3.8125q-13.078125 0 -21.140625 -8.375q-8.046875 -8.390625 -8.046875 -24.140625zm10.84375 0q0 11.953125 5.203125 17.90625q5.21875 5.9375 13.140625 5.9375q7.84375 0 13.0625 -5.96875q5.21875 -5.984375 5.21875 -18.234375q0 -11.546875 -5.25 -17.484375q-5.25 -5.953125 -13.03125 -5.953125q-7.921875 0 -13.140625 5.921875q-5.203125 5.921875 -5.203125 17.875zm59.347656 55.07811l-1.171875 -9.90625q3.46875 0.9375 6.046875 0.9375q3.515625 0 5.625 -1.171875q2.109375 -1.171875 3.453125 -3.28125q1.0 -1.578125 3.21875 -7.84375q0.296875 -0.89060974 0.9375 -2.5781097l-23.609375 -62.359375l11.359375 0l12.953125 36.046875q2.515625 6.84375 4.515625 14.40625q1.8125 -7.265625 4.328125 -14.171875l13.3125 -36.28125l10.5469055 0l-23.671906 63.296875q-3.8125 10.249985 -5.921875 14.10936q-2.8125 5.21875 -6.453125 7.640625q-3.625 2.4375 -8.671875 2.4375q-3.046875 0 -6.796875 -1.28125zm63.46878 -23.968735l0 -12.015625l11.9999695 0l0 12.015625l-11.9999695 0zm23.308563 0l22.734375 -32.34375l-21.03125 -29.890625l13.1875 0l9.546875 14.59375q2.703125 4.15625 4.34375 6.96875q2.578125 -3.859375 4.734375 -6.84375l10.5 -14.71875l12.59375 0l-21.5 29.296875l23.140625 32.9375l-12.953125 0l-12.765625 -19.34375l-3.40625 -5.203125l-16.34375 24.546875l-12.78125 0zm66.5625 23.968735l-1.171875 -9.90625q3.46875 0.9375 6.046875 0.9375q3.515625 0 5.625 -1.171875q2.109375 -1.171875 3.453125 -3.28125q1.0 -1.578125 3.21875 -7.84375q0.296875 -0.89060974 0.9375 -2.5781097l-23.609375 -62.359375l11.359375 0l12.953125 36.046875q2.515625 6.84375 4.515625 14.40625q1.8125 -7.265625 4.328125 -14.171875l13.3125 -36.28125l10.546875 0l-23.671875 63.296875q-3.8125 10.249985 -5.921875 14.10936q-2.8125 5.21875 -6.453125 7.640625q-3.625 2.4375 -8.671875 2.4375q-3.046875 0 -6.796875 -1.28125zm54.90625 -23.968735l0 -8.5625l39.609375 -45.46875q-6.734375 0.359375 -11.890625 0.359375l-25.375 0l0 -8.5625l50.859375 0l0 6.984375l-33.6875 39.484375l-6.5 7.203125q7.078125 -0.515625 13.296875 -0.515625l28.765625 0l0 9.078125l-55.078125 0z" fill-rule="nonzero"/></g></svg>